{
	"asset":{
		"generator":"Khronos glTF Blender I/O v3.5.30",
		"version":"2.0"
	},
	"scene":0,
	"scenes":[
		{
			"name":"Scene",
			"nodes":[
				0
			]
		}
	],
	"nodes":[
		{
			"mesh":0,
			"name":"model.003",
			"rotation":[
				0.7071068286895752,
				0,
				0,
				0.7071068286895752
			],
			"scale":[
				10,
				10,
				10
			],
			"translation":[
				0.07336883246898651,
				0.723961353302002,
				0.027420639991760254
			]
		}
	],
	"meshes":[
		{
			"name":"model.009",
			"primitives":[
				{
					"attributes":{
						"POSITION":0,
						"TEXCOORD_0":1,
						"NORMAL":2
					},
					"indices":3
				}
			]
		}
	],
	"accessors":[
		{
			"bufferView":0,
			"componentType":5126,
			"count":13381,
			"max":[
				0.0653432160615921,
				0.036092109978199005,
				0.10265851020812988
			],
			"min":[
				-0.0626266673207283,
				-0.03050766885280609,
				-0.10619699954986572
			],
			"type":"VEC3"
		},
		{
			"bufferView":1,
			"componentType":5126,
			"count":13381,
			"type":"VEC2"
		},
		{
			"bufferView":2,
			"componentType":5126,
			"count":13381,
			"type":"VEC3"
		},
		{
			"bufferView":3,
			"componentType":5123,
			"count":13599,
			"type":"SCALAR"
		}
	],
	"bufferViews":[
		{
			"buffer":0,
			"byteLength":160572,
			"byteOffset":0,
			"target":34962
		},
		{
			"buffer":0,
			"byteLength":107048,
			"byteOffset":160572,
			"target":34962
		},
		{
			"buffer":0,
			"byteLength":160572,
			"byteOffset":267620,
			"target":34962
		},
		{
			"buffer":0,
			"byteLength":27198,
			"byteOffset":428192,
			"target":34963
		}
	],
	"buffers":[
		{
			"byteLength":455392,
			"uri":"data:application/octet-stream;base64,"
		}
	]
}
